<svg width="32" height="32" viewBox="0 0 32 32" fill="none" xmlns="http://www.w3.org/2000/svg">
<path d="M13.7662 5.75641C14.3347 3.41453 17.6653 3.41453 18.2338 5.75641C18.6011 7.26924 20.3343 7.98717 21.6638 7.17713C23.7217 5.92319 26.0768 8.27827 24.8229 10.3362C24.0128 11.6657 24.7308 13.3989 26.2436 13.7662C28.5855 14.3347 28.5855 17.6653 26.2436 18.2338C24.7308 18.6011 24.0128 20.3343 24.8229 21.6638C26.0768 23.7217 23.7217 26.0768 21.6638 24.8229C20.3343 24.0128 18.6011 24.7308 18.2338 26.2436C17.6653 28.5855 14.3347 28.5855 13.7662 26.2436C13.3989 24.7308 11.6657 24.0128 10.3362 24.8229C8.27827 26.0768 5.92319 23.7217 7.17713 21.6638C7.98717 20.3343 7.26924 18.6011 5.75641 18.2338C3.41453 17.6653 3.41453 14.3347 5.75641 13.7662C7.26924 13.3989 7.98717 11.6657 7.17713 10.3362C5.92319 8.27827 8.27827 5.92319 10.3362 7.17713C11.6657 7.98717 13.3989 7.26924 13.7662 5.75641Z" stroke="#0071E3" stroke-width="2" stroke-linecap="round" stroke-linejoin="round"/>
<path d="M20 16C20 18.2091 18.2091 20 16 20C13.7909 20 12 18.2091 12 16C12 13.7909 13.7909 12 16 12C18.2091 12 20 13.7909 20 16Z" stroke="#0071E3" stroke-width="2" stroke-linecap="round" stroke-linejoin="round"/>
</svg>
