<svg width="32" height="32" viewBox="0 0 32 32" fill="none" xmlns="http://www.w3.org/2000/svg">
<path d="M15.9999 6.66683L15.9999 6.68016M15.9999 16.0002L15.9999 16.0135M15.9999 25.3335L15.9999 25.3468M15.9999 8.00016C15.2635 8.00016 14.6666 7.40321 14.6666 6.66683C14.6666 5.93045 15.2635 5.3335 15.9999 5.3335C16.7363 5.3335 17.3333 5.93045 17.3333 6.66683C17.3333 7.40321 16.7363 8.00016 15.9999 8.00016ZM15.9999 17.3335C15.2635 17.3335 14.6666 16.7365 14.6666 16.0002C14.6666 15.2638 15.2635 14.6668 15.9999 14.6668C16.7363 14.6668 17.3333 15.2638 17.3333 16.0002C17.3333 16.7365 16.7363 17.3335 15.9999 17.3335ZM15.9999 26.6668C15.2635 26.6668 14.6666 26.0699 14.6666 25.3335C14.6666 24.5971 15.2635 24.0002 15.9999 24.0002C16.7363 24.0002 17.3333 24.5971 17.3333 25.3335C17.3333 26.0699 16.7363 26.6668 15.9999 26.6668Z" stroke="#2B2A2A" stroke-width="2" stroke-linecap="round" stroke-linejoin="round"/>
</svg>
