<svg width="24" height="25" viewBox="0 0 24 25" fill="none" xmlns="http://www.w3.org/2000/svg">
<g id="Icon/Solid/home">
<path id="Icon" d="M12.8484 3.25137C12.3798 2.78275 11.62 2.78275 11.1514 3.25137L2.75137 11.6514C2.28275 12.12 2.28275 12.8798 2.75137 13.3484C3.22 13.8171 3.9798 13.8171 4.44843 13.3484L4.7999 12.997V20.8999C4.7999 21.5626 5.33716 22.0999 5.9999 22.0999H8.3999C9.06264 22.0999 9.5999 21.5626 9.5999 20.8999V18.4999C9.5999 17.8372 10.1372 17.2999 10.7999 17.2999H13.1999C13.8626 17.2999 14.3999 17.8372 14.3999 18.4999V20.8999C14.3999 21.5626 14.9372 22.0999 15.5999 22.0999H17.9999C18.6626 22.0999 19.1999 21.5626 19.1999 20.8999V12.997L19.5514 13.3484C20.02 13.8171 20.7798 13.8171 21.2484 13.3484C21.7171 12.8798 21.7171 12.12 21.2484 11.6514L12.8484 3.25137Z" fill="#0071E3"/>
</g>
</svg>
